<?xml version="1.0" encoding="UTF-8" standalone="no"?>
<!-- Created with Inkscape (http://www.inkscape.org/) -->

<svg
   width="454.8512"
   height="32.040001"
   viewBox="0 0 120.34605 8.4772502"
   version="1.1"
   id="svg8"
   inkscape:version="1.2 (dc2aedaf03, 2022-05-15)"
   sodipodi:docname="logo-long.svg"
   xml:space="preserve"
   xmlns:inkscape="http://www.inkscape.org/namespaces/inkscape"
   xmlns:sodipodi="http://sodipodi.sourceforge.net/DTD/sodipodi-0.dtd"
   xmlns="http://www.w3.org/2000/svg"
   xmlns:svg="http://www.w3.org/2000/svg"
   xmlns:rdf="http://www.w3.org/1999/02/22-rdf-syntax-ns#"
   xmlns:cc="http://creativecommons.org/ns#"
   xmlns:dc="http://purl.org/dc/elements/1.1/"><defs
     id="defs2" /><sodipodi:namedview
     id="base"
     pagecolor="#ffffff"
     bordercolor="#666666"
     borderopacity="1.0"
     inkscape:pageopacity="0.0"
     inkscape:pageshadow="2"
     inkscape:zoom="2.3946909"
     inkscape:cx="191.25642"
     inkscape:cy="40.923862"
     inkscape:document-units="mm"
     inkscape:current-layer="layer1"
     showgrid="false"
     inkscape:window-width="1920"
     inkscape:window-height="1011"
     inkscape:window-x="0"
     inkscape:window-y="32"
     inkscape:window-maximized="1"
     fit-margin-top="0"
     fit-margin-left="0"
     fit-margin-right="0"
     fit-margin-bottom="0"
     inkscape:showpageshadow="0"
     inkscape:pagecheckerboard="0"
     inkscape:deskcolor="#d1d1d1" /><metadata
     id="metadata5"><rdf:RDF><cc:Work
         rdf:about=""><dc:format>image/svg+xml</dc:format><dc:type
           rdf:resource="http://purl.org/dc/dcmitype/StillImage" /></cc:Work></rdf:RDF></metadata><g
     inkscape:label="Layer 1"
     inkscape:groupmode="layer"
     id="layer1"
     transform="translate(-13.153719,-114.80657)"><g
       aria-label="PROTOSPACE PORTAL"
       transform="matrix(0.26458333,0,0,0.26458333,4.1049049,0.16085732)"
       style="font-style:normal;font-weight:normal;font-size:40px;line-height:1.25;font-family:sans-serif;letter-spacing:0px;word-spacing:0px;fill:#000000;fill-opacity:1;stroke:none"
       id="flowRoot10"><g
         style="display:block;fill:#000000"
         id="g544"
         transform="matrix(0.09073671,0,0,0.09073671,179.97593,471.58984)"><g
           id="g846"
           transform="matrix(0.98910243,0,0,0.98910243,-1268.6049,-394.63312)"><g
             id="g777"
             transform="translate(1989.7031,-109.24904)"><path
               d="M 0,0 H 13 V 62 H 0 Z"
               transform="translate(1660,232)"
               style="fill:#000000"
               id="path395" /><path
               d="M 0,0 H 14 L 27,47 28,49 41,1 42,0 H 54 L 52,10 36,60 35,62 H 20 L 0,1 Z"
               transform="translate(1571,232)"
               style="fill:#000000"
               id="path397" /><path
               d="M 0,0 H 12 V 62 H 0 Z"
               transform="translate(1524,232)"
               style="fill:#000000"
               id="path399" /><path
               d="M 0,0 H 12 V 62 H 0 Z"
               transform="translate(930,232)"
               style="fill:#000000"
               id="path401" /><path
               d="m 0,0 h 12 l 1,42 2,8 3,3 2,1 9,-1 5,-5 3,-8 1,-40 h 12 l 1,62 H 39 l -2,-9 -5,7 -5,3 -4,1 H 15 L 7,61 3,56 1,52 0,46 Z"
               transform="translate(618,232)"
               style="fill:#000000"
               id="path403" /><path
               d="m 0,0 h 13 l 7,3 6,5 4,8 1,5 v 14 l -38,1 1,10 5,8 5,2 9,-1 5,-5 3,-2 8,4 -2,5 -7,6 -9,3 H 2 l -9,-3 -8,-7 -4,-8 -1,-4 V 23 l 4,-11 7,-8 z m 2,9 -7,6 -3,8 v 4 H 19 L 18,18 15,12 10,9 Z"
               transform="translate(2364,230)"
               style="fill:#000000"
               id="path405" /><path
               d="m 0,0 h 6 v 11 l -8,1 -6,7 -3,10 -1,35 H -24 L -25,2 h 12 l 2,9 5,-8 z"
               transform="translate(2309,230)"
               style="fill:#000000"
               id="path407" /><path
               d="m 0,0 h 12 l 6,3 5,6 2,8 V 64 H 13 L 12,21 9,12 6,10 h -8 l -6,4 -3,6 -1,4 -1,40 H -25 V 2 h 11 l 2,8 6,-7 z"
               transform="translate(2156,230)"
               style="fill:#000000"
               id="path409" /><path
               d="m 0,0 h 13 l 8,4 6,7 3,8 1,6 v 10 l -39,1 1,9 3,6 4,4 3,1 h 7 l 5,-3 5,-5 8,4 -2,5 -8,7 -8,2 H 2 l -10,-3 -7,-6 -4,-8 -2,-7 V 25 l 3,-10 6,-9 8,-5 z m 1,9 -6,5 -3,7 v 6 H 18 V 20 L 15,13 10,9 Z"
               transform="translate(2061,230)"
               style="fill:#000000"
               id="path411" /><path
               d="m 0,0 h 12 l 6,3 5,6 1,-7 h 12 v 68 l -3,11 -7,8 -9,4 H -1 l -10,-4 -6,-4 2,-4 4,-4 5,2 8,4 h 11 l 6,-3 3,-6 1,-4 V 56 l -5,7 -8,3 H 2 l -7,-3 -6,-5 -5,-10 -1,-4 V 21 l 4,-11 5,-6 z m 5,9 -6,5 -3,7 -1,5 v 13 l 3,11 4,5 4,2 9,-1 6,-7 3,-10 V 27 L 21,16 17,11 14,9 Z"
               transform="translate(1823,230)"
               style="fill:#000000"
               id="path413" /><path
               d="m 0,0 h 12 l 6,3 4,5 2,5 1,8 V 64 H 12 L 11,17 8,11 6,10 h -8 l -5,3 -4,6 -1,3 -1,42 H -25 L -26,2 h 12 l 1,8 5,-5 5,-4 z"
               transform="translate(1742,230)"
               style="fill:#000000"
               id="path415" /><path
               d="m 0,0 h 13 l 7,3 7,6 4,11 v 15 l -38,1 1,9 4,8 6,3 h 7 l 6,-4 4,-4 8,4 -2,5 -7,6 -9,3 H 2 l -9,-3 -8,-7 -4,-9 -1,-4 V 23 l 4,-11 6,-7 z m 2,9 -6,5 -3,6 -1,7 H 19 L 18,17 14,11 11,9 Z"
               transform="translate(1327,230)"
               style="fill:#000000"
               id="path417" /><path
               d="m 0,0 h 14 l 8,4 5,6 2,9 1,45 H 20 l -2,-8 -6,7 -4,2 H -5 l -6,-3 -5,-6 -1,-2 V 40 l 5,-8 9,-5 4,-1 16,-1 -1,-10 -5,-5 -7,-1 -9,3 -4,3 -6,-7 5,-4 z m 7,33 -8,3 -4,4 -1,9 3,5 4,3 h 7 l 7,-6 3,-8 V 33 Z"
               transform="translate(1091,230)"
               style="fill:#000000"
               id="path419" /><path
               d="m 0,0 h 12 l 6,3 5,6 2,9 V 64 H 13 L 12,22 10,13 6,10 h -8 l -6,4 -3,6 -1,4 -1,40 H -25 L -26,2 h 12 l 2,8 6,-7 z"
               transform="translate(1011,230)"
               style="fill:#000000"
               id="path421" /><path
               d="m 0,0 h 13 l 8,3 5,6 2,6 1,8 1,41 H 20 l -1,-1 v -8 h -2 l -2,5 -5,4 -3,1 H -6 l -8,-5 -3,-5 -1,-11 2,-7 5,-6 8,-4 4,-1 H 17 L 16,16 12,11 4,9 l -9,3 -4,3 -6,-7 6,-5 z m 6,33 -8,3 -4,6 v 8 l 3,5 4,2 h 7 l 6,-5 3,-6 1,-13 z"
               transform="translate(859,230)"
               style="fill:#000000"
               id="path423" /><path
               d="m 0,0 h 13 l 10,4 2,4 -6,5 -4,-2 -4,-2 H 3 l -5,3 -1,2 v 7 l 5,4 15,6 7,8 1,4 v 7 l -3,8 -6,5 -9,3 h -9 l -10,-3 -6,-4 v -3 l 5,-5 4,2 6,3 H 7 l 4,-3 1,-9 -4,-5 -15,-6 -7,-6 -2,-6 1,-10 7,-8 z"
               transform="translate(723,230)"
               style="fill:#000000"
               id="path425" /><path
               d="m 0,0 h 12 v 17 h 13 v 8 H 12 l 1,41 3,4 9,1 v 8 l -2,1 H 9 L 3,76 0,69 V 25 h -9 v -8 h 9 z"
               transform="translate(2225,215)"
               style="fill:#000000"
               id="path427" /><path
               d="m 0,0 h 12 v 17 h 13 v 8 H 12 l 1,41 1,4 11,1 v 8 l -2,1 H 9 L 3,76 0,70 V 25 H -10 V 17 H 0 Z"
               transform="translate(787,215)"
               style="fill:#000000"
               id="path429" /><path
               d="m 0,0 h 9 l 3,3 v 7 L 8,13 H 1 L -3,9 V 3 Z"
               transform="translate(1662,207)"
               style="fill:#000000"
               id="path433" /><path
               d="m 0,0 h 9 l 3,4 -1,7 -3,2 H 1 L -3,10 V 3 Z"
               transform="translate(1526,207)"
               style="fill:#000000"
               id="path435" /><path
               d="m 0,0 h 13 l 1,76 29,1 V 87 H 0 Z"
               transform="translate(1448,207)"
               style="fill:#000000"
               id="path437" /><path
               d="m 0,0 h 9 l 3,3 1,4 -3,5 -1,1 H 1 L -3,9 -2,2 Z"
               transform="translate(931,207)"
               style="fill:#000000"
               id="path439" /><path
               d="m 0,0 13,1 9,4 4,4 -7,7 -4,-2 -8,-3 h -8 l -8,4 -3,7 1,8 6,7 17,8 9,7 4,7 1,4 v 7 l -3,9 -4,6 -9,5 -8,2 h -9 l -12,-3 -10,-6 2,-4 6,-5 10,6 4,1 h 8 l 7,-3 3,-4 1,-3 v -7 l -3,-6 -9,-6 -16,-8 -5,-5 -3,-4 -1,-3 V 18 l 4,-8 7,-6 7,-3 z"
               transform="translate(554,204)"
               style="fill:#000000"
               id="path441" /><path
               d="m 0,0 14,1 12,6 3,4 -8,7 -7,-5 -7,-2 -10,1 -7,4 -6,10 -3,12 v 16 l 3,12 6,10 10,5 h 8 l 7,-3 5,-4 4,2 4,3 -1,4 -8,6 -5,2 -6,1 h -9 l -9,-2 -10,-6 -6,-7 -5,-10 -3,-15 V 40 l 3,-14 6,-12 4,-5 9,-6 z"
               transform="translate(1982,204)"
               style="fill:#000000"
               id="path443" /><path
               d="M 0,0 H 12 V 93 H 0 Z"
               transform="translate(1255,201)"
               style="fill:#000000"
               id="path445" /><path
               d="m 0,0 h 12 l 1,38 6,-7 5,-2 h 12 l 8,4 6,8 3,10 v 21 l -4,12 -6,7 -9,4 h -8 l -8,-3 -4,-5 -1,-2 -1,8 H 0 Z m 23,38 -6,4 -4,8 -1,5 v 14 l 3,10 6,6 8,1 5,-3 4,-5 2,-5 1,-6 V 57 L 38,45 33,39 31,38 Z"
               transform="translate(1162,201)"
               style="fill:#000000"
               id="path447" /></g><g
             id="g792"
             transform="translate(-2.9022772e-7,44.083592)"><path
               d="M 0,0 H 12 L 20,16 34,46 37,42 50,15 57,0 H 69 L 67,6 55,30 45,49 41,57 40,98 H 29 L 28,57 0,1 Z"
               transform="translate(2334,46)"
               style="fill:#000000"
               id="path463" /><path
               d="M 0,0 H 47 V 8 L 12,9 11,43 h 33 v 8 H 11 v 38 h 37 v 9 H 0 Z"
               transform="translate(2213,46)"
               style="fill:#000000"
               id="path465" /><path
               d="m 0,0 h 11 v 89 h 33 v 9 H 0 Z"
               transform="translate(2089,46)"
               style="fill:#000000"
               id="path467" /><path
               d="m 0,0 h 12 v 89 h 33 v 9 H 0 Z"
               transform="translate(1964,46)"
               style="fill:#000000"
               id="path469" /><path
               d="m 0,0 h 16 l 18,61 10,34 v 3 H 32 l -7,-24 -36,-1 -3,12 -4,13 H -30 L -27,86 -6,18 -1,1 Z M 7,9 4,17 -9,63 v 3 H 23 L 22,58 9,11 Z"
               transform="translate(1840,46)"
               style="fill:#000000"
               id="path471" /><path
               d="m 0,0 h 13 l 23,83 v 3 h 2 L 40,75 61,0 H 73 L 72,7 52,73 45,96 44,98 H 29 L 20,69 0,1 Z"
               transform="translate(1671,46)"
               style="fill:#000000"
               id="path473" /><path
               d="m 0,0 h 30 l 11,2 11,6 7,7 6,12 2,9 v 27 l -4,13 -6,9 -8,7 -8,4 -11,2 H 0 Z M 11,8 V 90 H 30 L 41,86 47,81 53,71 56,61 57,47 55,33 50,21 45,15 37,10 30,8 Z"
               transform="translate(1436,46)"
               style="fill:#000000"
               id="path475" /><path
               d="m 0,0 h 14 l 10,19 30,60 v 2 h 2 V 0 H 66 V 98 H 52 L 42,79 12,19 V 17 H 10 V 98 H 0 Z"
               transform="translate(1278,46)"
               style="fill:#000000"
               id="path477" /><path
               d="M 0,0 H 17 L 32,43 45,82 59,41 73,0 H 91 V 98 H 80 L 79,15 52,95 51,98 H 40 L 36,88 11,14 10,98 H 0 Z"
               transform="translate(935,46)"
               style="fill:#000000"
               id="path479" /><path
               d="m 0,0 h 16 l 9,29 20,68 v 1 H 33 l -5,-15 -2,-10 -36,1 -8,24 h -11 l 1,-7 23,-75 z M 7,9 -9,64 v 2 H 24 L 22,56 9,10 Z"
               transform="translate(810,46)"
               style="fill:#000000"
               id="path481" /><path
               d="M 0,0 H 11 V 98 H 0 Z"
               transform="translate(689,46)"
               style="fill:#000000"
               id="path483" /><path
               d="m 0,0 h 31 l 13,3 11,7 6,8 4,8 3,15 v 17 l -3,14 -6,11 -4,5 -11,7 -13,3 H 0 Z m 12,8 -1,1 v 80 l 1,1 h 18 l 11,-4 8,-7 6,-12 2,-10 V 42 L 55,32 51,22 44,14 34,9 30,8 Z"
               transform="translate(534,46)"
               style="fill:#000000"
               id="path485" /><path
               d="m 0,0 h 14 l 9,3 9,6 6,8 5,11 2,9 1,17 -2,16 -4,11 -6,10 -9,7 -6,3 -5,1 H 0 l -11,-4 -8,-6 -6,-9 -4,-9 -2,-9 -1,-9 V 46 l 2,-15 5,-13 7,-9 9,-6 z m 4,8 -8,3 -8,7 -5,10 -3,14 v 18 l 4,16 4,8 9,8 7,2 10,-1 7,-4 6,-7 5,-12 2,-11 V 43 L 31,28 27,20 20,12 10,8 Z"
               transform="translate(1145,44)"
               style="fill:#000000"
               id="path487" /></g></g><g
           id="g803"
           transform="matrix(0.98910243,0,0,0.98910243,-1268.6049,-421.91527)"><path
             d="M 0,0 Z"
             transform="translate(113,215)"
             style="fill:#000000"
             id="path431" /><path
             d="M 0,0 Z"
             transform="translate(66,198)"
             style="fill:#000000"
             id="path449" /><path
             d="m 0,0 h 19 l 21,3 21,6 13,5 v 3 L 63,30 52,44 41,57 30,71 16,88 3,104 l -13,16 -11,14 -11,13 -8,10 -13,16 -11,14 -8,10 h -2 l -13,-17 -12,-15 -10,-13 -14,-18 -11,-14 -14,-18 -11,-14 1,-3 16,-7 16,-5 18,-3 h 23 l 20,4 16,6 -8,-7 -14,-8 -15,-6 -17,-4 -9,-1 h -22 l -15,1 5,-4 14,-8 17,-8 20,-7 21,-5 16,-2 h 24 l 19,3 18,6 9,4 L 0,23 -16,15 -32,10 -35,8 -19,3 Z m -48,81 z"
             transform="translate(263,160)"
             style="fill:#000000"
             id="path451" /><path
             d="M 0,0 Z"
             transform="translate(9,98)"
             style="fill:#000000"
             id="path453" /><path
             d="M 0,0 Z"
             transform="translate(377,97)"
             style="fill:#000000"
             id="path455" /><path
             d="M 0,0 Z"
             transform="translate(10,97)"
             style="fill:#000000"
             id="path457" /><path
             d="M 0,0 Z"
             transform="translate(376,96)"
             style="fill:#000000"
             id="path459" /><path
             d="m 0,0 4,1 14,11 10,8 h 13 l 16,13 17,13 h 4 l 16,-12 17,-13 12,-9 11,7 22,15 23,16 22,15 10,7 -2,5 -4,4 -5,-1 -14,-7 -14,-17 -5,-5 -14,-7 -6,-10 v -2 l -11,-3 -10,-6 -3,-1 -1,6 -7,1 2,3 -1,6 -2,6 1,7 -6,2 2,9 -3,2 2,18 -8,-6 L 88,64 78,56 67,47 51,34 42,28 30,30 16,20 2,11 v 11 l -8,11 -6,11 -6,-5 -7,10 -10,18 1,11 3,18 v 5 l -5,-5 -9,-11 -8,-8 -4,-8 -9,-9 -19,-14 -11,-8 -4,2 -4,4 2,5 1,4 -2,6 1,5 8,8 3,2 -1,4 -5,7 -5,25 -3,10 2,10 3,11 -1,3 -11,-14 -11,-14 -11,-14 -11,-14 -11,-14 -10,-13 3,-2 42,-18 21,-9 5,1 18,13 9,6 9,-6 14,-11 13,-10 18,-14 13,-10 z"
             transform="translate(166,54)"
             style="fill:#000000"
             id="path461" /><path
             d="m 0,0 h 228 l 13,18 14,19 14,19 14,19 13,18 v 3 L 278,83 257,71 236,61 211,52 190,46 164,41 138,38 H 92 L 66,41 40,46 16,53 -6,61 -33,74 -54,87 -67,97 V 94 L -54,75 -43,60 -31,43 -19,26 -6,8 Z"
             transform="translate(79)"
             style="fill:#000000"
             id="path489" /></g></g></g></g></svg>
